<svg xmlns="http://www.w3.org/2000/svg" width="40.587" height="40.587" viewBox="0 0 40.587 40.587">
  <path id="Trazado_46" data-name="Trazado 46" d="M32.705,27.515l-3.395,1.908a2.145,2.145,0,0,1-2.565-.351l-11.33-11.3a2.134,2.134,0,0,1-.352-2.559l1.912-3.387a3.2,3.2,0,0,0-.528-3.838L11.361,2.909a3.216,3.216,0,0,0-4.542,0l-2.31,2.3a8.53,8.53,0,0,0-1.287,10.44L4.38,17.579a67.069,67.069,0,0,0,24.263,23.7l.229.131A8.6,8.6,0,0,0,39.233,40.06l2.412-2.407a3.2,3.2,0,0,0,0-4.532l-5.091-5.079A3.217,3.217,0,0,0,32.705,27.515Z" transform="translate(-2 -1.97)" fill="#00a3ff"/>
</svg>
