<svg id="Grupo_119" data-name="Grupo 119" xmlns="http://www.w3.org/2000/svg" width="39.342" height="39.342" viewBox="0 0 39.342 39.342">
  <path id="Trazado_42" data-name="Trazado 42" d="M37.429,15.8A19.637,19.637,0,0,0,17.8,35.429a19.334,19.334,0,0,0,3.144,10.664L17.97,52.678a1.784,1.784,0,0,0,.255,1.827,1.9,1.9,0,0,0,1.784.552l8.242-2.252A19.655,19.655,0,1,0,37.429,15.8Zm0,35.858a16.1,16.1,0,0,1-8.157-2.209,1.532,1.532,0,0,0-.85-.255,1.743,1.743,0,0,0-.467.042l-5.4,1.487L24.428,46.6a1.732,1.732,0,0,0-.17-1.7A16.061,16.061,0,0,1,21.2,35.429a16.23,16.23,0,1,1,16.23,16.23Z" transform="translate(-17.8 -15.8)" fill="#00a3ff" fill-rule="evenodd"/>
  <path id="Trazado_43" data-name="Trazado 43" d="M59.671,53.492c-.852-.538-2.017-1.121-3-.672-.762.314-1.3,1.569-1.793,2.2a.817.817,0,0,1-.986.224,13.564,13.564,0,0,1-6.813-5.827.892.892,0,0,1,.09-1.165,4.787,4.787,0,0,0,1.255-2.017,4.414,4.414,0,0,0-.538-2.376c-.4-.9-.852-2.152-1.748-2.645a2.344,2.344,0,0,0-2.6.4A5.271,5.271,0,0,0,41.7,45.827a4.627,4.627,0,0,0,.179,1.345,10.824,10.824,0,0,0,1.3,2.958,15.781,15.781,0,0,0,1.345,2.017A20.654,20.654,0,0,0,50.3,57.526a17.892,17.892,0,0,0,3.631,1.7,8.536,8.536,0,0,0,4.213.672,5.1,5.1,0,0,0,3.81-2.824,2.659,2.659,0,0,0,.179-1.434C61.823,54.568,60.478,53.985,59.671,53.492Z" transform="translate(-32.087 -30.776)" fill="#00a3ff" fill-rule="evenodd"/>
</svg>
