<svg xmlns="http://www.w3.org/2000/svg" width="265.926" height="275.481" viewBox="0 0 265.926 275.481">
  <g id="Grupo_95" data-name="Grupo 95" transform="translate(-7.5 -0.001)">
    <path id="Trazado_247" data-name="Trazado 247" d="M131.124,311.451l-11.692-11.692a53.628,53.628,0,0,1-15.549-42.033h0l49.185-49.185h0A53.628,53.628,0,0,1,195.1,224.09l11.692,11.692,36.018,38.8-72.562,78.008Z" transform="translate(-44.738 -96.884)" fill="#fbbf7d"/>
    <path id="Trazado_248" data-name="Trazado 248" d="M283.2,259.59l51.455,51.455a13.377,13.377,0,0,1,0,18.917h0a13.377,13.377,0,0,1-18.917,0l-28.754-28.754m0,0,28.754,28.754a13.377,13.377,0,0,1,0,18.917h0a13.377,13.377,0,0,1-18.917,0l-28.754-28.754" transform="translate(-121.148 -120.693)" fill="#fbbf7d"/>
    <path id="Trazado_249" data-name="Trazado 249" d="M286.986,337.372l28.754,28.754a13.377,13.377,0,0,1,0,18.917h0a13.376,13.376,0,0,1-18.917,0l-28.754-28.754" transform="translate(-121.148 -156.856)" fill="#fbbf7d"/>
    <path id="Trazado_250" data-name="Trazado 250" d="M317.783,373.53h0a13.377,13.377,0,0,1-18.917,0l-24.741-24.741h0a5.675,5.675,0,0,0,0,8.026l24.742,24.741a13.377,13.377,0,0,0,18.917,0h0a13.372,13.372,0,0,0,3.3-13.472A13.314,13.314,0,0,1,317.783,373.53Zm18.92-18.917h0a13.377,13.377,0,0,1-18.917,0l-24.741-24.741h0a5.675,5.675,0,0,0,0,8.026l24.741,24.741a13.377,13.377,0,0,0,18.917,0h0a13.372,13.372,0,0,0,3.3-13.472,13.314,13.314,0,0,1-3.3,5.446Z" transform="translate(-123.191 -153.369)" fill="#f9b15e"/>
    <path id="Trazado_251" data-name="Trazado 251" d="M251.631,372.727l28.754,28.754a13.377,13.377,0,0,1,0,18.917h0a13.377,13.377,0,0,1-18.917,0l-28.754-28.754" transform="translate(-104.71 -173.294)" fill="#fbbf7d"/>
    <path id="Trazado_252" data-name="Trazado 252" d="M282.428,425.323h0a13.377,13.377,0,0,1-18.917,0l-24.741-24.741h0a5.675,5.675,0,0,0,0,8.026l24.741,24.741a13.377,13.377,0,0,0,18.917,0h0a13.372,13.372,0,0,0,3.3-13.472A13.312,13.312,0,0,1,282.428,425.323Z" transform="translate(-106.753 -186.245)" fill="#f9b15e"/>
    <path id="Trazado_253" data-name="Trazado 253" d="M196.55,404.794,225.3,433.549a13.377,13.377,0,0,1,0,18.917h0a13.377,13.377,0,0,1-18.917,0l-51.455-51.455" transform="translate(-68.547 -186.445)" fill="#fbbf7d"/>
    <path id="Trazado_254" data-name="Trazado 254" d="M225.3,444.441h0a13.377,13.377,0,0,1-18.917,0l-42.627-42.627-8.829-.8,51.455,51.455a13.377,13.377,0,0,0,18.917,0h0a13.372,13.372,0,0,0,3.3-13.472A13.314,13.314,0,0,1,225.3,444.441Z" transform="translate(-68.547 -186.445)" fill="#f9b15e"/>
    <path id="Trazado_255" data-name="Trazado 255" d="M106.626,157.839l-45.78,45.78a16.043,16.043,0,0,1-22.7,0L33.9,199.37,7.5,172.97l58.445-77.3,40.681,39.466a15.625,15.625,0,0,1,1.343,1.53A16.043,16.043,0,0,1,106.626,157.839Z" transform="translate(0 -44.48)" fill="#dc40dc"/>
    <path id="Trazado_256" data-name="Trazado 256" d="M13.377,0h0A13.377,13.377,0,0,1,26.753,13.377V25.835A13.377,13.377,0,0,1,13.377,39.212h0A13.377,13.377,0,0,1,0,25.835V13.377A13.377,13.377,0,0,1,13.377,0Z" transform="translate(119.926 228.837) rotate(45)" fill="#fdd8ae"/>
    <path id="Trazado_257" data-name="Trazado 257" d="M13.377,0h0A13.377,13.377,0,0,1,26.753,13.377V25.835A13.377,13.377,0,0,1,13.377,39.212h0A13.377,13.377,0,0,1,0,25.835V13.377A13.377,13.377,0,0,1,13.377,0Z" transform="translate(101.009 209.92) rotate(45)" fill="#fdd8ae"/>
    <path id="Trazado_258" data-name="Trazado 258" d="M13.377,0h0A13.377,13.377,0,0,1,26.753,13.377V25.835A13.377,13.377,0,0,1,13.377,39.212h0A13.377,13.377,0,0,1,0,25.835V13.377A13.377,13.377,0,0,1,13.377,0Z" transform="translate(82.092 191.002) rotate(45)" fill="#fdd8ae"/>
    <path id="Trazado_259" data-name="Trazado 259" d="M13.377,0h0A13.377,13.377,0,0,1,26.753,13.377V25.835A13.377,13.377,0,0,1,13.377,39.212h0A13.377,13.377,0,0,1,0,25.835V13.377A13.377,13.377,0,0,1,13.377,0Z" transform="translate(63.175 172.085) rotate(45)" fill="#fdd8ae"/>
    <path id="Trazado_260" data-name="Trazado 260" d="M257.947,200.475H247.732a24.449,24.449,0,0,0-18.22,8.147l-31.735,35.471a8.453,8.453,0,0,0,.322,11.613,18.757,18.757,0,0,0,26.526,0l24.248-24.248,43.863,43.863a55.4,55.4,0,0,0,22.152-27.55Z" transform="translate(-87.466 -93.208)" fill="#fdd8ae"/>
    <path id="Trazado_261" data-name="Trazado 261" d="M414.279,172.97l-26.068,26.068-4.58,4.58a16.043,16.043,0,0,1-22.7,0l-45.78-45.78a16.05,16.05,0,0,1,0-22.7l5.233-5.276L354.33,95.67Z" transform="translate(-140.853 -44.48)" fill="#9b9b9b"/>
    <path id="Trazado_262" data-name="Trazado 262" d="M388.211,228.734l-4.58,4.58a16.043,16.043,0,0,1-22.7,0l-45.78-45.78a16.05,16.05,0,0,1,0-22.7l5.233-5.276.059-.016Z" transform="translate(-140.853 -74.176)" fill="#1ebea8"/>
    <path id="Trazado_263" data-name="Trazado 263" d="M129.566,187.906l-45.78,45.78a16.043,16.043,0,0,1-22.7,0l-4.248-4.248,67.68-69.1,6.389,6.394a16.043,16.043,0,0,1-1.343,21.172Z" transform="translate(-22.94 -74.548)" fill="#df53df"/>
    <circle id="Elipse_45" data-name="Elipse 45" cx="56.862" cy="56.862" r="56.862" transform="translate(83.601 4.013)" fill="#e1e1e3"/>
    <path id="Trazado_264" data-name="Trazado 264" d="M247.614,7.5a57,57,0,0,0-9.65.823,56.865,56.865,0,0,1,0,112.079,56.863,56.863,0,1,0,9.65-112.9Z" transform="translate(-107.151 -3.487)" fill="#c8c5cc"/>
    <path id="Trazado_265" data-name="Trazado 265" d="M203.1,121.751a60.875,60.875,0,1,1,60.875-60.875A60.875,60.875,0,0,1,203.1,121.751Zm0-113.725a52.849,52.849,0,1,0,52.849,52.849A52.849,52.849,0,0,0,203.1,8.026Z" transform="translate(-62.64)" fill="#787681"/>
    <path id="Trazado_266" data-name="Trazado 266" d="M232.167,118.284a49.381,49.381,0,0,1-17.122-12.838A41.972,41.972,0,0,1,204.74,78v-17.8a47.2,47.2,0,0,0,20.907-6.122,43.065,43.065,0,0,0,6.521-4.638,43.066,43.066,0,0,0,6.521,4.638,47.2,47.2,0,0,0,20.907,6.122V78a41.97,41.97,0,0,1-10.3,27.447A49.387,49.387,0,0,1,232.167,118.284Z" transform="translate(-91.704 -22.983)" fill="#24b378"/>
  </g>
</svg>
