<svg xmlns="http://www.w3.org/2000/svg" width="256.766" height="297.119" viewBox="0 0 256.766 297.119">
  <g id="Grupo_94" data-name="Grupo 94" transform="translate(-1292.989 -343.881)">
    <g id="Grupo_93" data-name="Grupo 93" transform="translate(1292.989 343.881)">
      <path id="Trazado_238" data-name="Trazado 238" d="M116.652,69V25.435A17.935,17.935,0,0,1,134.587,7.5h165a17.935,17.935,0,0,1,17.935,17.935V286.684a17.935,17.935,0,0,1-17.935,17.935H89.75" transform="translate(-60.756 -7.5)" fill="#fff8cc"/>
      <path id="Trazado_239" data-name="Trazado 239" d="M56.2,110.37H97.147V318.042A27.948,27.948,0,0,1,69.2,345.99h0A27.948,27.948,0,0,1,41.25,318.042V125.316A14.946,14.946,0,0,1,56.2,110.37Z" transform="translate(-41.25 -48.872)" fill="#fff099"/>
      <path id="Trazado_240" data-name="Trazado 240" d="M83.984,340.356a4.484,4.484,0,0,1-4.484-4.484V145.394a4.484,4.484,0,0,1,8.967,0V335.854a4.484,4.484,0,0,1-4.484,4.5Z" transform="translate(-56.633 -61.154)" fill="#ffe64e"/>
      <rect id="Rectángulo_119" data-name="Rectángulo 119" width="147.065" height="26.902" rx="10" transform="translate(82.799 26.902)" fill="#ffed80"/>
      <path id="Trazado_246" data-name="Trazado 246" d="M323.8,325.6H176.734a4.484,4.484,0,1,1,0-8.967H323.8a4.484,4.484,0,1,1,0,8.967Zm0,26.9H176.734a4.484,4.484,0,0,1,0-8.967H323.8a4.484,4.484,0,1,1,0,8.967Zm-91.467,26.9h-55.6a4.484,4.484,0,1,1,0-8.967h55.6a4.484,4.484,0,0,1,0,8.967Zm91.467,0H259.233a4.484,4.484,0,1,1,0-8.967H323.8a4.484,4.484,0,0,1,0,8.967Zm-91.467,26.9h-55.6a4.484,4.484,0,0,1,0-8.967h55.6a4.484,4.484,0,0,1,0,8.967Zm91.467,0H259.233a4.484,4.484,0,1,1,0-8.967H323.8a4.484,4.484,0,1,1,0,8.967Z" transform="translate(-93.935 -131.825)" fill="#ffed80"/>
    </g>
    <g id="Grupo_87" data-name="Grupo 87" transform="translate(1421.372 436.302)">
      <path id="Trazado_180" data-name="Trazado 180" d="M58.228,52.577,52.45,58.369a4.076,4.076,0,0,1-5.778,0L9.127,20.73,4.452,8.511,1.92,1.92,8.514,4.458,20.682,9.145l37.545,37.64a4.1,4.1,0,0,1,0,5.792Z" transform="translate(-1.92 -1.92)" fill="#ffb74e"/>
    </g>
  </g>
</svg>
