<svg xmlns="http://www.w3.org/2000/svg" width="110.408" height="110.408" viewBox="0 0 110.408 110.408">
  <g id="Grupo_80" data-name="Grupo 80" transform="translate(0 0)">
    <path id="Trazado_156" data-name="Trazado 156" d="M0,0H110.408V110.408H0Z" transform="translate(0 0)" fill="none"/>
    <path id="Trazado_157" data-name="Trazado 157" d="M94.007,2H29.6a9.2,9.2,0,0,0-9.2,9.2v64.4a9.2,9.2,0,0,0,9.2,9.2h64.4a9.2,9.2,0,0,0,9.2-9.2V11.2A9.2,9.2,0,0,0,94.007,2Zm0,73.605H29.6V11.2h64.4ZM11.2,20.4H2V94.007a9.2,9.2,0,0,0,9.2,9.2H84.806v-9.2H11.2Zm64.4,36.8V50.3a6.891,6.891,0,0,0-6.9-6.9,6.891,6.891,0,0,0,6.9-6.9V29.6a9.2,9.2,0,0,0-9.2-9.2H48v9.2H66.4v9.2H57.2V48h9.2v9.2H48v9.2H66.4A9.2,9.2,0,0,0,75.605,57.2Z" transform="translate(2.6 2.6)" fill="#00a3ff"/>
  </g>
</svg>
