<svg xmlns="http://www.w3.org/2000/svg" width="110.408" height="110.408" viewBox="0 0 110.408 110.408">
  <g id="Grupo_78" data-name="Grupo 78" transform="translate(0 0)">
    <path id="Trazado_152" data-name="Trazado 152" d="M0,0H110.408V110.408H0Z" transform="translate(0 0)" fill="none"/>
    <path id="Trazado_153" data-name="Trazado 153" d="M11.2,20.4H2V94.007a9.2,9.2,0,0,0,9.2,9.2H84.806v-9.2H11.2Zm50.6,46h9.2v-46H52.6v9.2h9.2ZM94.007,2H29.6a9.2,9.2,0,0,0-9.2,9.2v64.4a9.2,9.2,0,0,0,9.2,9.2h64.4a9.2,9.2,0,0,0,9.2-9.2V11.2A9.2,9.2,0,0,0,94.007,2Zm0,73.605H29.6V11.2h64.4Z" transform="translate(2.6 2.6)" fill="#00a3ff"/>
  </g>
</svg>
