<svg xmlns="http://www.w3.org/2000/svg" width="101.207" height="101.207" viewBox="0 0 101.207 101.207">
  <path id="Trazado_155" data-name="Trazado 155" d="M11.2,20.4H2V94.007a9.2,9.2,0,0,0,9.2,9.2H84.806v-9.2H11.2ZM94.007,2H29.6a9.2,9.2,0,0,0-9.2,9.2v64.4a9.2,9.2,0,0,0,9.2,9.2h64.4a9.2,9.2,0,0,0,9.2-9.2V11.2A9.2,9.2,0,0,0,94.007,2Zm0,73.605H29.6V11.2h64.4Zm-18.4-18.4H57.2V48h9.2a9.2,9.2,0,0,0,9.2-9.2V29.6a9.2,9.2,0,0,0-9.2-9.2H48v9.2H66.4v9.2H57.2A9.2,9.2,0,0,0,48,48V66.4h27.6Z" transform="translate(-2 -2)" fill="#fff"/>
</svg>
