<svg xmlns="http://www.w3.org/2000/svg" width="49.095" height="44.334" viewBox="0 0 49.095 44.334">
  <path id="Sustracción_4" data-name="Sustracción 4" d="M31.336,44.1a8.659,8.659,0,0,0,1.57-.156,8.776,8.776,0,0,0,1.511-.434,8.893,8.893,0,0,0,1.415-.7A9.116,9.116,0,0,0,38.224,40.7a9.493,9.493,0,0,0,1.54-2.816,9.665,9.665,0,0,0,.4-1.581l3.579-.017a5.171,5.171,0,0,0,2.085-.449,5.4,5.4,0,0,0,1.7-1.205,5.646,5.646,0,0,0,1.147-1.779,5.772,5.772,0,0,0,.42-2.17V19.526a5.876,5.876,0,0,0-.109-1.091,5.714,5.714,0,0,0-.305-1.034,5.655,5.655,0,0,0-.494-.952,5.586,5.586,0,0,0-.671-.847,5.481,5.481,0,0,0-.815-.7,5.241,5.241,0,0,0-.916-.511,5.18,5.18,0,0,0-.994-.315,5.239,5.239,0,0,0-1.05-.11l-19.182-3.8L11.244,2.581a20.106,20.106,0,0,0-2.275-1.1,20.041,20.041,0,0,0-2.386-.8A19.918,19.918,0,0,0,1.607.011c-.134,0-.268,0-.4,0S.936.017.8.022.533.032.4.039.133.055,0,.064V3.93q.193-.017.386-.03T.774,3.88c.129-.005.259-.009.389-.011s.26,0,.39,0a16.1,16.1,0,0,1,2.037.141,16.349,16.349,0,0,1,2,.4,16.527,16.527,0,0,1,1.939.641,16.354,16.354,0,0,1,1.849.879L16.68,9.8,0,9.729v4.082l23.943.066,19.476,3.743.044,0,.045,0,.045,0H43.6a1.846,1.846,0,0,1,.344.033,1.862,1.862,0,0,1,.64.248,1.958,1.958,0,0,1,.281.21,1.989,1.989,0,0,1,.267.3,2.091,2.091,0,0,1,.338.722,2.093,2.093,0,0,1,.059.4v1.861H43.741a1.718,1.718,0,0,0-.7.146,1.8,1.8,0,0,0-.568.4,1.867,1.867,0,0,0-.383.592,1.938,1.938,0,0,0,0,1.45,1.872,1.872,0,0,0,.383.592,1.8,1.8,0,0,0,.568.4,1.709,1.709,0,0,0,.7.146l1.786,0v5.584a1.915,1.915,0,0,1-.14.724A1.9,1.9,0,0,1,45,32.01a1.8,1.8,0,0,1-.568.4,1.712,1.712,0,0,1-.7.149l-3.867.014a9.461,9.461,0,0,0-1.154-2.857,9.311,9.311,0,0,0-.9-1.237,9.039,9.039,0,0,0-1.092-1.068,8.806,8.806,0,0,0-4.071-1.878,8.573,8.573,0,0,0-3,0,8.928,8.928,0,0,0-4.091,1.895,9.11,9.11,0,0,0-1.1,1.076,9.379,9.379,0,0,0-.91,1.248,9.585,9.585,0,0,0-1.167,2.88L0,32.714v3.78l22.458-.107a9.487,9.487,0,0,0,1.061,3.064,9.322,9.322,0,0,0,.9,1.335,8.992,8.992,0,0,0,2.41,2.092,8.816,8.816,0,0,0,1.423.681,8.725,8.725,0,0,0,1.516.412A8.62,8.62,0,0,0,31.336,44.1Zm-.163-14.978a5.218,5.218,0,0,1,2.1.436,5.393,5.393,0,0,1,1.717,1.2,5.6,5.6,0,0,1,1.157,1.777,5.806,5.806,0,0,1,0,4.357,5.668,5.668,0,0,1-1.157,1.788,5.453,5.453,0,0,1-1.717,1.212,5.232,5.232,0,0,1-4.207.025,5.394,5.394,0,0,1-1.723-1.2,5.607,5.607,0,0,1-1.164-1.781,5.806,5.806,0,0,1,0-4.372,5.677,5.677,0,0,1,1.164-1.79,5.456,5.456,0,0,1,1.723-1.21A5.231,5.231,0,0,1,31.173,29.125ZM0,28.932H0l18.5-.041a1.769,1.769,0,0,0,.707-.15,1.811,1.811,0,0,0,.578-.4,1.885,1.885,0,0,0,.389-.6,1.932,1.932,0,0,0,0-1.46,1.887,1.887,0,0,0-.389-.6,1.831,1.831,0,0,0-.578-.4,1.749,1.749,0,0,0-.707-.147L0,25.153v3.779Z" fill="#2da1e2"/>
</svg>
