<svg xmlns="http://www.w3.org/2000/svg" width="66" height="52.517" viewBox="0 0 66 52.517">
  <g id="Grupo_171" data-name="Grupo 171" transform="translate(0 -89.594)">
    <path id="Trazado_548" data-name="Trazado 548" d="M89.585,122.659l-4.219-10.969a3.867,3.867,0,0,0-3.609-2.479H49.575a3.867,3.867,0,0,0-3.609,2.479l-4.219,10.969a8.979,8.979,0,0,1-1.824,2.912h0a8.979,8.979,0,0,0-2.423,6.135v16.177a3.867,3.867,0,0,0,3.867,3.867h48.6a3.867,3.867,0,0,0,3.867-3.867V131.705a8.979,8.979,0,0,0-2.423-6.135h0a8.979,8.979,0,0,1-1.824-2.912Z" transform="translate(-32.666 -17.087)" fill="none"/>
    <path id="Trazado_552" data-name="Trazado 552" d="M175.792,320.624H155.971a1.031,1.031,0,0,1-.839-.432l-2.394-3.352a1.031,1.031,0,0,1,.839-1.631h24.609a1.031,1.031,0,0,1,.839,1.631l-2.394,3.352A1.031,1.031,0,0,1,175.792,320.624Z" transform="translate(-132.882 -196.532)" fill="#fff"/>
    <path id="Trazado_559" data-name="Trazado 559" d="M11.73,117.711a3.867,3.867,0,1,0,3.867,3.867,3.867,3.867,0,0,0-3.867-3.867Zm0,5.8a1.934,1.934,0,1,1,1.934-1.934A1.934,1.934,0,0,1,11.73,123.512ZM66,106.431v-2.32a2.387,2.387,0,0,0-2.385-2.385H58.953a2.383,2.383,0,0,0-2.035,1.148L53.6,94.255a4.866,4.866,0,0,0-4.12-3.082v-.612a.967.967,0,1,0-1.934,0v.595H19.391v-.595a.967.967,0,0,0-1.934,0v.595h-.548a4.863,4.863,0,0,0-4.512,3.1l-3.315,8.62a2.383,2.383,0,0,0-2.035-1.148H2.385A2.387,2.387,0,0,0,0,104.111v2.32a2.387,2.387,0,0,0,2.385,2.385H5.736a9.906,9.906,0,0,0-1.869,5.8v16.177a4.836,4.836,0,0,0,2.385,4.165v6.378a5.041,5.041,0,0,0,.114.774H59.634a2.7,2.7,0,0,0,.114-.774V134.96a4.836,4.836,0,0,0,2.385-4.165V114.618a9.906,9.906,0,0,0-1.869-5.8h3.352A2.387,2.387,0,0,0,66,106.431Zm-63.615.451a.452.452,0,0,1-.451-.451v-2.32a.452.452,0,0,1,.451-.451H7.047a.452.452,0,0,1,.451.451v2.32a.452.452,0,0,1-.451.451Zm12.891,34.455c0,.427-5.889.773-6.316.774l8.135-.365s-8.909.018-8.909-.409V135.6a4.863,4.863,0,0,0,.516.028h6.574Zm1.819.774a2.7,2.7,0,0,0,.114-.774v-5.709H48.791v5.709a2.7,2.7,0,0,0,.114.774Zm1.159-8.416,2.353-2.039a4.317,4.317,0,0,1,2.827-1.055h19a4.317,4.317,0,0,1,2.827,1.055l2.353,2.039Zm39.561,7.642a.775.775,0,0,1-.774.774l1.912-.365s-8.228.018-8.228-.409v-5.709H57.3a4.859,4.859,0,0,0,.516-.028ZM60.2,130.795a2.9,2.9,0,0,1-2.9,2.9H50.57l-4.039-3.5a6.251,6.251,0,0,0-4.094-1.527h-19a6.251,6.251,0,0,0-4.093,1.527L15.3,133.7H8.7a2.9,2.9,0,0,1-2.9-2.9V114.618a7.985,7.985,0,0,1,2.162-5.474,9.9,9.9,0,0,0,2.021-3.225L14.2,94.949a2.918,2.918,0,0,1,2.707-1.859H49.091A2.918,2.918,0,0,1,51.8,94.949l4.219,10.969a9.9,9.9,0,0,0,2.021,3.225,7.985,7.985,0,0,1,2.162,5.474Zm-1.246-23.912a.452.452,0,0,1-.451-.451v-2.32a.452.452,0,0,1,.451-.451h4.662a.452.452,0,0,1,.451.451v2.32a.452.452,0,0,1-.451.451ZM45.3,117.711H20.7a2,2,0,0,0-1.626,3.159l2.394,3.352a2,2,0,0,0,1.626.837H42.911a2,2,0,0,0,1.626-.837l2.394-3.352a2,2,0,0,0-1.626-3.159Zm.052,2.035L42.963,123.1a.064.064,0,0,1-.052.027H23.089a.064.064,0,0,1-.052-.027l-2.394-3.352a.064.064,0,0,1,.052-.1H45.3a.064.064,0,0,1,.052.1ZM11.73,110.713H54.27a.967.967,0,0,0,.9-1.316L49.9,95.788a.967.967,0,0,0-.9-.618H17a.967.967,0,0,0-.9.618L10.829,109.4a.967.967,0,0,0,.9,1.316ZM17.662,97.1H48.338l4.52,11.676H13.141ZM54.27,117.711a3.867,3.867,0,1,0,3.867,3.867,3.867,3.867,0,0,0-3.867-3.867Zm0,5.8a1.934,1.934,0,1,1,1.934-1.934A1.934,1.934,0,0,1,54.27,123.512Z" fill="#2689cb"/>
  </g>
</svg>
