<svg xmlns="http://www.w3.org/2000/svg" width="50.823" height="43.97" viewBox="0 0 50.823 43.97">
  <path id="Sustracción_3" data-name="Sustracción 3" d="M4853.578,5523.985a9.336,9.336,0,0,1-9.205-7.776h-3.749a5.631,5.631,0,0,1-5.625-5.625v-11.248a5.624,5.624,0,0,1,5.625-5.585l19.984-3.75,13.722-7.5a20.841,20.841,0,0,1,9.856-2.488c.546,0,1.1.021,1.637.064v3.834c-.521-.048-1.054-.074-1.583-.074a17.05,17.05,0,0,0-8,2l-7.5,3.825h17.08v4.048h-24.577l-20.284,3.712c-.062-.006-.126-.009-.189-.009a2.023,2.023,0,0,0-2.023,1.92v1.875h1.875a1.875,1.875,0,0,1,0,3.75h-1.875v5.623a1.877,1.877,0,0,0,1.875,1.876h4.049a9.336,9.336,0,0,1,18.185,0h22.965v3.749h-23.041a9.334,9.334,0,0,1-9.2,7.776Zm.169-15.011a5.624,5.624,0,1,0,5.623,5.623A5.63,5.63,0,0,0,4853.747,5508.974Zm32.076-.264h-18.954a1.874,1.874,0,1,1,0-3.749h18.954v3.748Z" transform="translate(-4835 -5480.015)" fill="#2da1e2"/>
</svg>
